<svg width="269" height="134" viewBox="0 0 269 134" fill="none" xmlns="http://www.w3.org/2000/svg">
<path d="M192.681 79.2428H215.627C216.134 79.2428 216.62 79.4426 216.978 79.7982C217.337 80.1538 217.538 80.6361 217.538 81.139V98.3908C217.538 98.8937 217.337 99.376 216.978 99.7317C216.62 100.087 216.134 100.287 215.627 100.287H192.486" stroke="#111111" stroke-width="0.900168" stroke-linecap="round" stroke-linejoin="round"/>
<path d="M217.538 89.9122H192.681" stroke="#111111" stroke-width="0.900168" stroke-linecap="round" stroke-linejoin="round"/>
<path d="M211.366 79.3905V101.098" stroke="#111111" stroke-width="0.900168" stroke-linecap="round" stroke-linejoin="round"/>
<path d="M127.274 25.8842V8.35432C127.274 6.40383 128.055 4.53323 129.445 3.15403C130.836 1.77483 132.721 1 134.688 1H185.113C186.087 1 187.051 1.19024 187.95 1.55984C188.849 1.92945 189.666 2.47119 190.355 3.15412C191.043 3.83705 191.589 4.6478 191.961 5.54006C192.334 6.43232 192.525 7.38861 192.525 8.35432V124.759C192.525 126.709 191.744 128.58 190.354 129.959C188.964 131.337 187.079 132.112 185.113 132.112H134.688C132.722 132.112 130.836 131.338 129.446 129.959C128.056 128.58 127.275 126.71 127.274 124.759V97.097" stroke="#111111" stroke-width="0.900168" stroke-linecap="round" stroke-linejoin="round"/>
<path d="M130.86 97.8733V122.534C130.86 125.379 133.259 127.686 136.218 127.686H178.082C181.041 127.686 183.44 125.379 183.44 122.534V10.8291C183.44 7.98402 181.041 5.67734 178.082 5.67734H167.888V7.82786C167.882 8.1692 167.74 8.49439 167.493 8.73199C167.246 8.96959 166.914 9.10015 166.57 9.09498H147.727C147.383 9.10015 147.051 8.96959 146.804 8.73199C146.557 8.49439 146.415 8.1692 146.409 7.82786V5.67734H136.224C133.265 5.67734 130.866 7.98402 130.866 10.8291V27.2391" stroke="#111111" stroke-width="0.900168" stroke-linecap="round" stroke-linejoin="round"/>
<path d="M183.148 1C185.785 2.37717 187.573 5.06607 187.573 8.15503V99.658" stroke="#111111" stroke-width="0.900168" stroke-linecap="round" stroke-linejoin="round"/>
<path d="M183.683 124.063C168.861 123.868 165.371 121.981 156.098 113.003C146.826 104.024 135.325 104.56 131.338 105.002" stroke="#111111" stroke-width="0.900168" stroke-linecap="round" stroke-linejoin="round"/>
<path d="M131.577 30.8932C135.57 30.4471 146.832 27.1469 156.1 36.1178C165.278 45.0025 168.789 54.1296 183.25 54.494" stroke="#111111" stroke-width="0.900168" stroke-linecap="round" stroke-linejoin="round"/>
<path d="M167.257 94.0095C165.422 93.4147 162.31 92.2249 162.385 91.1511C162.497 89.6297 168.45 91.05 168.45 91.05L168.552 86.5006C168.552 86.5006 161.268 86.4872 156.737 87.5297L156.547 95.3332L160.164 96.3207C161.865 96.7749 163.381 97.744 164.501 99.0929C165.843 101.493 165.723 103.076 166.001 104.307C166.137 104.858 166.471 105.341 166.94 105.665C167.409 105.989 167.981 106.133 168.549 106.069V95.7615C168.546 95.3719 168.42 94.993 168.188 94.6785C167.956 94.3641 167.63 94.1301 167.257 94.0095Z" fill="#111111"/>
<path d="M106.572 121.27L106.189 125.097C106.067 126.556 105.406 127.918 104.333 128.922C102.33 130.112 100.846 130 99.7512 130.25C98.7513 130.479 98.2235 131.455 98.5369 132.5H109.331C109.331 132.5 109.908 126.955 111.335 127.054C112.762 127.154 113.702 132.75 113.702 132.75H117.934C117.934 132.75 115.717 125.268 113.518 121.331L106.572 121.27Z" fill="#111111"/>
<path d="M138.419 44.1846L133.604 43.6834V43.9273L133.653 44.131C132.491 46.9568 129.905 49.1341 126.402 49.3229C121.066 49.6115 122.567 43.6298 122.669 43.2818L122.55 42.9442L117.303 42.5248L121.026 73.4279L138.716 73.639C132.667 64.4599 136.509 56.24 138.419 44.1846ZM123.835 57.7644C123.81 57.6489 123.832 57.528 123.896 57.4284C123.96 57.3289 124.062 57.2588 124.178 57.2335L128.956 56.2028L132.805 48.7786C132.861 48.6769 132.955 48.6012 133.067 48.5674C133.18 48.5336 133.3 48.5445 133.404 48.5978C133.508 48.651 133.588 48.7425 133.625 48.8526C133.662 48.9627 133.654 49.0829 133.604 49.1876L129.659 56.7992C129.629 56.8573 129.587 56.9081 129.535 56.9482C129.484 56.9883 129.423 57.0166 129.359 57.0312L124.37 58.1095C124.339 58.1153 124.306 58.1183 124.274 58.1184C124.171 58.1182 124.071 58.083 123.992 58.0185C123.912 57.9541 123.856 57.8644 123.835 57.7644ZM134.849 65.3835C134.617 65.7386 134.312 66.042 133.955 66.2747C133.599 66.5074 133.197 66.6642 132.776 66.7354L124.571 68.0917C124.546 68.0938 124.521 68.0938 124.496 68.0917C124.437 68.0965 124.378 68.0897 124.321 68.0717C124.265 68.0537 124.213 68.0248 124.167 67.9868C124.122 67.9487 124.085 67.9022 124.058 67.8499C124.031 67.7976 124.015 67.7406 124.01 67.682C124.005 67.6234 124.012 67.5644 124.03 67.5085C124.048 67.4525 124.077 67.4006 124.115 67.3558C124.154 67.311 124.201 67.2741 124.253 67.2473C124.306 67.2204 124.364 67.2042 124.423 67.1994L132.626 65.8519C132.925 65.8024 133.21 65.6919 133.463 65.5276C133.716 65.3632 133.933 65.1486 134.098 64.8971C134.128 64.8423 134.168 64.7941 134.217 64.7556C134.266 64.7172 134.323 64.6893 134.383 64.6738C134.444 64.6583 134.507 64.6555 134.569 64.6656C134.631 64.6757 134.69 64.6984 134.742 64.7324C134.794 64.7664 134.839 64.8108 134.873 64.8629C134.907 64.9149 134.93 64.9735 134.94 65.0347C134.95 65.096 134.947 65.1587 134.931 65.2187C134.915 65.2788 134.887 65.3349 134.848 65.3835H134.849Z" fill="#111111"/>
<path d="M116.5 85.745L119.551 93.3893C119.956 94.2759 120.613 95.0261 121.442 95.5485C122.27 96.0708 123.233 96.3428 124.215 96.3311L156.369 102.726L156.773 86.0588L132.409 85.1665L131.36 73.6122" stroke="#111111" stroke-width="0.900168" stroke-linecap="round" stroke-linejoin="round"/>
<path d="M115.966 65.4534C115.966 65.4534 102.142 81.6924 100.795 85.4089C99.4468 89.1255 101.394 121.224 101.394 121.224L116.225 121.355L114.139 87.7766L134.44 70.7747L115.966 65.4534Z" stroke="#111111" stroke-width="0.900168" stroke-linecap="round" stroke-linejoin="round"/>
<path d="M135.647 40.8205C136.447 40.4324 136.635 39.0478 136.065 37.7063C135.808 37.0576 135.365 36.4984 134.789 36.0986" stroke="#6D6D6D" stroke-width="0.900168" stroke-linecap="round" stroke-linejoin="round"/>
<path d="M133.358 26.1342C131.791 24.7615 131.193 18.0883 136.04 13.9702C140.946 9.80596 144.397 14.638 145.15 15.9036C145.903 17.1692 146.285 20.5259 142.099 23.3903C137.914 26.2547 135.146 27.7017 133.358 26.1342Z" fill="#111111"/>
<path d="M132.613 28.6818L134.061 27.1128C134.183 26.984 134.279 26.8325 134.342 26.6669C134.405 26.5013 134.434 26.3249 134.428 26.148C134.422 25.9711 134.381 25.7972 134.306 25.6363C134.232 25.4754 134.126 25.3307 133.995 25.2106L133.901 25.1288C133.623 24.8928 133.263 24.7744 132.899 24.7992C132.534 24.8239 132.194 24.9899 131.952 25.2612L130.503 26.8287L132.613 28.6818Z" fill="#6D6D6D"/>
<path d="M132.477 36.4079C132.717 36.5618 132.993 36.6527 133.279 36.6722C133.565 36.6917 133.851 36.6392 134.111 36.5195C134.53 36.3355 134.861 35.9974 135.033 35.5763C135.206 35.1552 135.208 34.6839 135.037 34.2619C134.882 33.8998 134.601 33.6052 134.245 33.432C133.889 33.2588 133.482 33.2187 133.099 33.319" stroke="#111111" stroke-width="0.900168" stroke-linecap="round" stroke-linejoin="round"/>
<path d="M122.197 32.3805C121.787 32.2494 121.343 32.276 120.952 32.4549C120.535 32.6401 120.207 32.9784 120.035 33.3987C119.864 33.8189 119.863 34.2887 120.033 34.7095C120.184 35.0607 120.453 35.3487 120.795 35.5237C121.137 35.6986 121.53 35.7494 121.906 35.6673" stroke="#111111" stroke-width="0.900168" stroke-linecap="round" stroke-linejoin="round"/>
<path d="M125.148 40.938L125.249 43.4886L122.672 43.2804C122.57 43.6284 121.069 49.61 126.405 49.3215C129.905 49.1326 132.494 46.9613 133.656 44.1296L131.59 43.8916L131.527 38.67" stroke="#111111" stroke-width="0.900168" stroke-linecap="round" stroke-linejoin="round"/>
<path d="M132.854 35.1391C133.606 31.2326 131.81 27.6101 128.842 27.048C125.874 26.4858 122.859 29.197 122.107 33.1035C121.355 37.01 123.152 40.6325 126.119 41.1947C129.087 41.7568 132.102 39.0456 132.854 35.1391Z" stroke="#111111" stroke-width="0.900168" stroke-linecap="round" stroke-linejoin="round"/>
<path d="M133.551 27.8832C132.332 26.445 130.355 25.4902 128.712 25.3266C118.444 23.5806 119.984 30.175 119.984 30.175L122.02 30.1125C121.502 31.4614 121.486 32.7494 122.02 33.5941C122.02 33.5777 122.02 33.5614 122.02 33.545C122.192 32.3172 122.612 31.1366 123.255 30.0738L129.277 29.8879C129.109 28.9956 129.755 28.6074 130.347 28.1553C130.331 28.5048 130.326 32.2943 133.008 33.429C133.005 33.853 132.974 34.2763 132.914 34.6961C132.898 34.8136 132.878 34.9296 132.857 35.0456C133.024 35.0436 133.191 35.0331 133.356 35.0144C135.37 34.7601 135.439 30.1095 133.551 27.8832Z" fill="#111111"/>
<path d="M133.526 35.9171C132.703 36.286 132.503 37.6869 133.076 39.0403C133.649 40.3937 134.79 41.1983 135.613 40.825L135.641 40.8116" stroke="#6D6D6D" stroke-width="0.900168" stroke-linecap="round" stroke-linejoin="round"/>
<path d="M120.946 34.7348C120.123 35.1036 119.923 36.5046 120.497 37.858C121.023 39.0953 122.014 39.8717 122.808 39.7185" stroke="#6D6D6D" stroke-width="0.900168" stroke-linecap="round" stroke-linejoin="round"/>
<path d="M126.927 35.8145L125.677 35.7283L126.582 32.6363" stroke="#111111" stroke-width="0.900168" stroke-linecap="round" stroke-linejoin="round"/>
<path d="M129.961 31.3406C129.961 31.3406 129.061 30.4594 128.276 31.1423" stroke="#111111" stroke-width="0.900168" stroke-linecap="round" stroke-linejoin="round"/>
<path d="M125.767 30.9219C125.767 30.9219 124.604 30.4284 124.099 31.3379" stroke="#111111" stroke-width="0.900168" stroke-linecap="round" stroke-linejoin="round"/>
<path d="M128.912 33.9808C129.142 33.9808 129.329 33.6951 129.329 33.3428C129.329 32.9904 129.142 32.7047 128.912 32.7047C128.681 32.7047 128.495 32.9904 128.495 33.3428C128.495 33.6951 128.681 33.9808 128.912 33.9808Z" fill="#111111"/>
<path d="M125.138 33.4769C125.173 33.1245 125.015 32.821 124.787 32.7991C124.558 32.7771 124.345 33.0449 124.311 33.3973C124.276 33.7496 124.434 34.0531 124.662 34.0751C124.891 34.0971 125.104 33.8292 125.138 33.4769Z" fill="#111111"/>
<path d="M126.168 38.0319C126.168 38.0319 127.667 38.9778 128.378 37.4727" stroke="#111111" stroke-width="0.900168" stroke-linecap="round" stroke-linejoin="round"/>
<path d="M112.172 40.1132V40.0382V29.8276H91.131V40.0382V40.1132H91.056H87.4281C86.55 40.1132 85.708 40.4593 85.0873 41.0751C84.4666 41.6908 84.118 42.5258 84.118 43.3964V44.2867C87.4783 44.0533 90.624 45.9861 91.453 46.4955C91.5426 46.5505 91.6051 46.589 91.638 46.6063C91.638 46.6063 91.6381 46.6063 91.6381 46.6063L91.6032 46.6727C91.996 46.878 92.0859 47.69 91.182 47.6855C90.527 47.6823 88.7315 47.341 87.7922 47.1532L112.172 40.1132ZM112.172 40.1132H112.247H120.664C121.099 40.1132 121.53 40.1982 121.931 40.3633C122.333 40.5283 122.697 40.7702 123.005 41.0751C123.312 41.3801 123.555 41.742 123.722 42.1403C123.888 42.5385 123.973 42.9654 123.973 43.3963V71.4097C123.973 72.2799 123.625 73.1145 123.004 73.73C122.384 74.3455 121.542 74.6914 120.664 74.6914H87.4281C86.5513 74.6914 85.7104 74.3463 85.0899 73.7321C84.4694 73.118 84.1199 72.2849 84.118 71.4156V50.9871M112.172 40.1132L84.118 50.9871M84.118 50.9871C84.5909 51.2041 85.0739 51.3989 85.5653 51.5711M84.118 50.9871L85.5652 51.571C85.5652 51.571 85.5653 51.571 85.5653 51.5711M85.5653 51.5711C86.6472 51.9521 87.617 51.9853 88.2753 51.8803C88.603 51.8281 88.8598 51.7406 89.0147 51.6397C89.0908 51.5901 89.1528 51.5305 89.1778 51.4607C89.191 51.424 89.1937 51.3849 89.1825 51.346C89.1716 51.3077 89.1487 51.2749 89.1192 51.2475C89.069 51.2009 88.9815 51.1423 88.8728 51.0772C88.7791 51.021 88.6658 50.9578 88.5395 50.8901M85.5653 51.5711L88.5395 50.8901M88.5395 50.8901C89.1063 51.052 89.618 51.0592 90.0075 50.9942C90.2848 50.948 90.5055 50.8643 90.6402 50.769C90.7063 50.7222 90.7606 50.6664 90.783 50.6027C90.7947 50.5694 90.7978 50.5332 90.788 50.4971C90.7782 50.4612 90.7572 50.4309 90.7299 50.4064C90.6862 50.3672 90.5905 50.3044 90.4645 50.2277C90.336 50.1494 90.1694 50.0527 89.9786 49.9445C89.5969 49.7283 89.1165 49.4654 88.6458 49.2111C88.2536 48.9992 87.868 48.7931 87.5515 48.6249L90.5558 49.589C90.5559 49.5891 90.5559 49.5891 90.556 49.5891C91.0315 49.746 91.4236 49.6507 91.6577 49.4527C91.8885 49.2575 91.9711 48.9484 91.7794 48.7188M88.5395 50.8901L88.8392 47.4312C88.6552 47.3973 88.4761 47.3633 88.3079 47.3309C88.8225 47.5097 89.3889 47.7107 89.9116 47.9041C90.3808 48.0777 90.8156 48.2453 91.1463 48.3853C91.3115 48.4552 91.4518 48.5187 91.5578 48.5729C91.6107 48.5999 91.6562 48.6252 91.6923 48.6483C91.7267 48.6702 91.7587 48.6939 91.7794 48.7188M91.7794 48.7188C91.7794 48.7189 91.7795 48.7189 91.7795 48.719L91.7217 48.7667L91.7792 48.7186C91.7793 48.7187 91.7793 48.7187 91.7794 48.7188ZM107.44 61.9365L107.179 62.0098L106.089 62.3158C107.363 62.02 108.791 61.841 110.238 61.9484L114.361 61.2198L114.426 61.2083L114.446 61.2712L116.283 67.1383L116.311 67.2253L116.22 67.2353L111.755 67.7274C110.925 68.1818 109.939 68.2787 109.164 68.2636C108.773 68.256 108.435 68.2199 108.193 68.1857C108.073 68.1686 107.976 68.152 107.91 68.1396C107.884 68.1347 107.863 68.1305 107.846 68.1272C107.012 68.9234 106.076 69.1446 105.382 69.1181C105.032 69.1048 104.739 69.0285 104.55 68.9274C104.457 68.8775 104.382 68.8172 104.342 68.7479C104.321 68.7122 104.309 68.6718 104.312 68.6289C104.315 68.5855 104.332 68.5463 104.361 68.5129C104.406 68.4605 104.487 68.3921 104.588 68.3148C104.676 68.2475 104.783 68.1709 104.903 68.0882C104.353 68.3144 103.841 68.3786 103.444 68.3568C103.161 68.3413 102.931 68.282 102.786 68.2018C102.715 68.1624 102.654 68.1126 102.625 68.0516C102.609 68.0196 102.602 67.984 102.608 67.9468C102.614 67.91 102.631 67.8774 102.656 67.8499C102.695 67.806 102.784 67.7327 102.901 67.642C103.021 67.5495 103.176 67.4343 103.355 67.3051C103.712 67.0465 104.163 66.7303 104.605 66.4237C104.976 66.1664 105.34 65.9157 105.639 65.7114L102.739 67.0103L107.44 61.9365ZM107.44 61.9365L107.178 61.8652M107.44 61.9365L107.178 61.8652M104.736 64.5063C104.241 64.7423 103.696 65.0063 103.194 65.2577C102.745 65.4828 102.329 65.6981 102.014 65.8741C101.856 65.9621 101.723 66.0408 101.623 66.1064C101.573 66.1392 101.53 66.1694 101.497 66.1963C101.465 66.2219 101.435 66.2489 101.417 66.2759L101.417 66.2761C101.251 66.5274 101.369 66.8272 101.622 66.9966C101.879 67.1684 102.282 67.2201 102.738 67.0106L104.736 64.5063ZM104.736 64.5063C104.57 64.5578 104.394 64.612 104.212 64.6669C103.351 64.927 102.367 65.2035 101.905 65.2572C101.667 65.2849 101.481 65.2528 101.342 65.1772C101.203 65.101 101.118 64.9838 101.079 64.8541C101.005 64.601 101.108 64.2991 101.317 64.1556C101.506 64.0265 102.647 63.394 104.284 62.8344C104.356 62.8099 104.429 62.7855 104.502 62.7613L104.001 62.9022L103.971 62.9105L103.944 62.8955C103.838 62.8367 103.73 62.777 103.623 62.7182C103.335 62.5592 103.056 62.4058 102.854 62.2882L104.736 64.5063ZM107.178 61.8652C106.573 61.7004 105.745 61.5055 104.995 61.3563C104.62 61.2817 104.263 61.2184 103.963 61.1759C103.665 61.1337 103.416 61.1112 103.261 61.1206L107.178 61.8652Z" fill="#EBD96B" stroke="#111111" stroke-width="0.150028"/>
<path d="M99.3838 29.9757V39.6292" stroke="#111111" stroke-width="0.900168" stroke-linecap="round" stroke-linejoin="round"/>
<path d="M93.6331 30.2374V33.0632H97.0242V30.3728" stroke="#111111" stroke-width="0.900168" stroke-linecap="round" stroke-linejoin="round"/>
<path d="M109.279 34.9296H105.466C104.916 34.9296 104.471 35.3718 104.471 35.9171V36.6712C104.471 37.2166 104.916 37.6587 105.466 37.6587H109.279C109.828 37.6587 110.274 37.2166 110.274 36.6712V35.9171C110.274 35.3718 109.828 34.9296 109.279 34.9296Z" stroke="#111111" stroke-width="0.900168" stroke-linecap="round" stroke-linejoin="round"/>
<path d="M85.5902 51.5032C87.731 52.2572 89.419 51.6326 89.0682 51.3054C88.7174 50.9782 85.968 49.7364 85.968 49.7364C85.968 49.7364 86.1179 49.6516 87.8164 50.5246C89.515 51.3976 90.9797 50.7328 90.6798 50.4651C90.38 50.1974 86.7655 48.2938 86.7655 48.2938L90.5764 49.5148C91.4864 49.8122 92.0321 49.1385 91.7187 48.7638C91.5149 48.5184 88.533 47.4788 87.1988 47.0296C87.1988 47.0296 90.2765 47.6766 91.182 47.6825C92.0875 47.6885 91.9961 46.875 91.6033 46.6697C91.2105 46.4645 86.9124 43.4663 82.7283 44.5876C80.7344 45.4919 78.6206 49.0448 85.5902 51.5032Z" stroke="#111111" stroke-width="0.900168" stroke-linecap="round" stroke-linejoin="round"/>
<path d="M95.7859 74.2905C96.6092 74.2976 97.4017 73.9802 97.9892 73.4079C98.5767 72.8357 98.9112 72.0554 98.9191 71.2387V43.2372C98.9112 42.4205 98.5767 41.6402 97.9892 41.068C97.4017 40.4957 96.6092 40.1783 95.7859 40.1855" stroke="#111111" stroke-width="0.900168" stroke-linecap="round" stroke-linejoin="round"/>
<path d="M114.374 61.288L110.242 62.0182C105.895 61.6925 101.729 63.962 101.36 64.2118C100.991 64.4617 100.991 65.2826 101.896 65.1771C102.802 65.0715 105.803 64.081 105.803 64.081C104.522 64.6759 101.658 66.0501 101.48 66.3118C101.21 66.7223 101.834 67.338 102.708 66.9364L106.38 65.2916C106.38 65.2916 102.98 67.5923 102.712 67.8942C102.444 68.1961 103.986 68.6958 105.581 67.6354C107.177 66.575 107.34 66.642 107.34 66.642C107.34 66.642 104.731 68.1902 104.418 68.556C104.105 68.9219 106.18 69.6462 107.823 68.04C107.823 68.04 110.1 68.5516 111.732 67.6488L116.212 67.1491L114.374 61.288Z" stroke="#111111" stroke-width="0.900168" stroke-linecap="round" stroke-linejoin="round"/>
<path d="M107.159 61.9376C105.959 61.609 103.861 61.1598 103.261 61.194C102.499 61.2342 102.22 61.8454 102.888 62.2217C103.163 62.3779 103.582 62.6099 103.976 62.8285" stroke="#111111" stroke-width="0.900168" stroke-linecap="round" stroke-linejoin="round"/>
<path d="M112.723 61.1523L113.813 68.1497C113.829 68.268 113.869 68.3819 113.929 68.4848C113.99 68.5878 114.071 68.6777 114.167 68.7494C114.263 68.8211 114.373 68.8731 114.489 68.9024C114.606 68.9317 114.727 68.9377 114.846 68.9201L132.547 65.9917C132.907 65.9324 133.251 65.7992 133.556 65.6008C133.862 65.4024 134.123 65.143 134.322 64.8391C136.271 61.8647 142.051 52.8596 142.648 49.7037C143.147 47.0713 140.423 44.0121 137.584 44.134C136.326 44.1876 129.542 57.061 129.542 57.061L113.527 60.0815C113.402 60.0966 113.281 60.1368 113.173 60.1994C113.064 60.2621 112.969 60.3461 112.894 60.4462C112.819 60.5463 112.765 60.6605 112.736 60.7819C112.706 60.9033 112.702 61.0293 112.723 61.1523Z" fill="#111111"/>
<path d="M75.4319 89.0645C75.4319 89.0645 80.7044 94.7457 79.0299 105.5" stroke="#111111" stroke-width="0.900168" stroke-linecap="round" stroke-linejoin="round"/>
<path d="M57.559 94.887V94.1567C57.5585 94.0523 57.532 93.9496 57.482 93.8578C57.432 93.7659 57.36 93.6876 57.2723 93.6299C57.1846 93.5721 57.0839 93.5367 56.9792 93.5266C56.8744 93.5166 56.7687 93.5322 56.6715 93.5723L54.6702 94.3977C54.58 94.435 54.4996 94.4922 54.435 94.565C54.3705 94.6377 54.3235 94.7241 54.2976 94.8176C54.2717 94.911 54.2677 95.0091 54.2857 95.1044C54.3038 95.1996 54.3435 95.2896 54.4018 95.3673L54.967 96.1109" stroke="#111111" stroke-width="0.900168" stroke-linecap="round" stroke-linejoin="round"/>
<path d="M61.2497 98.959L62.7264 101.959L72.1066 102.107C75.4827 101.959 78.5815 103.952 79.9862 107.191L87.7264 127.12C88.5569 128.712 88.6528 130.948 87.0263 131.73L86.7144 131.879C86.3713 132.057 85.9953 132.164 85.6092 132.193C85.2231 132.223 84.8349 132.174 84.4684 132.05C84.1018 131.926 83.7645 131.73 83.477 131.472C83.1894 131.215 82.9576 130.903 82.7956 130.554C82.7474 130.444 82.7054 130.332 82.6697 130.217L78.2712 113.88L76.2233 114.46L80.4554 130.494C80.4971 130.668 80.5036 130.848 80.4748 131.025C80.446 131.201 80.3823 131.37 80.2875 131.522C80.1926 131.674 80.0684 131.806 79.9221 131.911C79.7757 132.015 79.61 132.089 79.4345 132.13L77.1513 132.3C76.5865 132.341 76.026 132.175 75.5767 131.833C75.1275 131.491 74.8208 130.997 74.7152 130.445L71.7363 115.399L66.8281 115.368L66.5702 131.15C66.5748 131.349 66.5396 131.547 66.4666 131.733C66.3935 131.919 66.2842 132.088 66.1448 132.232C66.0055 132.375 65.8388 132.49 65.6545 132.569C65.4702 132.648 65.2719 132.691 65.0711 132.694L62.3921 132.744C62.1402 132.75 61.8901 132.701 61.6584 132.603C61.4267 132.505 61.2189 132.359 61.0486 132.175C60.8784 131.99 60.7497 131.772 60.6711 131.535C60.5926 131.297 60.566 131.046 60.5931 130.797L61.9963 115.083L59.9605 114.34L51.0525 129.063C50.9301 129.262 50.7685 129.433 50.5773 129.567C50.3861 129.702 50.1695 129.796 49.9404 129.845C49.7113 129.894 49.4747 129.896 49.2448 129.851C49.0148 129.807 48.7964 129.716 48.6028 129.585L46.6614 128.259C46.4593 128.122 46.2889 127.944 46.1613 127.736C46.0337 127.529 45.9519 127.297 45.9213 127.057C45.8907 126.816 45.912 126.571 45.9837 126.339C46.0555 126.107 46.1761 125.892 46.3376 125.71L56.4989 110.69L56.6863 101.133L51.3853 104.511C51.2348 104.608 51.0603 104.661 50.881 104.666C50.7017 104.671 50.5246 104.626 50.3693 104.537C50.2141 104.447 50.0868 104.317 50.0015 104.161C49.9162 104.004 49.8763 103.827 49.8861 103.65L50.0465 100.644C50.0749 100.123 50.236 99.6182 50.5147 99.176C50.7934 98.7339 51.1806 98.369 51.6401 98.1157L57.202 95.0491C57.5013 94.883 57.8423 94.8053 58.1846 94.825C58.527 94.8448 58.8565 94.9612 59.1344 95.1606" stroke="#111111" stroke-width="0.900168" stroke-linecap="round" stroke-linejoin="round"/>
<path d="M59.827 100.037L64.389 96.3608C64.5248 96.2513 64.6314 96.1103 64.6994 95.9503C64.7674 95.7903 64.7947 95.6161 64.7788 95.4432C64.763 95.2702 64.7045 95.1038 64.6085 94.9586C64.5126 94.8134 64.3821 94.6938 64.2286 94.6103L61.0713 92.8956C60.9288 92.8182 60.7703 92.7742 60.608 92.7668C60.4457 92.7593 60.2838 92.7887 60.1346 92.8526C59.9854 92.9166 59.8529 93.0134 59.7472 93.1358C59.6414 93.2582 59.5652 93.4029 59.5242 93.5589L58.118 98.9501C58.061 99.1664 58.0744 99.395 58.1564 99.6033C58.2384 99.8116 58.3848 99.9887 58.5745 100.109C58.7642 100.23 58.9876 100.288 59.2126 100.275C59.4376 100.262 59.6527 100.179 59.827 100.037Z" stroke="#111111" stroke-width="0.900168" stroke-linecap="round" stroke-linejoin="round"/>
<path d="M56.3614 97.2805C56.3762 96.9992 56.2318 96.763 56.039 96.7531C55.8462 96.7431 55.678 96.9631 55.6632 97.2445C55.6484 97.5258 55.7928 97.762 55.9856 97.7719C56.1784 97.7819 56.3466 97.5619 56.3614 97.2805Z" fill="#111111"/>
<path d="M50.366 102.534C50.3825 102.757 51.5653 102.832 52.084 101.82" stroke="#111111" stroke-width="0.900168" stroke-linecap="round" stroke-linejoin="round"/>
<path d="M51.9049 99.756C51.9241 99.0556 51.4962 98.4759 50.9491 98.4611C50.402 98.4463 49.943 99.0021 49.9237 99.7025C49.9045 100.403 50.3324 100.983 50.8795 100.997C51.4266 101.012 51.8857 100.456 51.9049 99.756Z" fill="#111111"/>
<path d="M77.0075 103.535C75.5758 102.54 73.8536 102.039 72.1067 102.112L64.2646 101.983C64.4056 102.759 65.1641 106.944 65.3141 107.772C65.4775 108.684 65.5239 110.62 68.4128 109.972C70.9449 109.405 74.9986 106.127 77.0075 103.535Z" stroke="#111111" stroke-width="0.900168" stroke-linecap="round" stroke-linejoin="round"/>
<path d="M64.0592 99.0081L54.6895 104.578C54.4853 104.699 54.3346 104.892 54.2673 105.119C54.2001 105.345 54.2213 105.588 54.3267 105.8L54.7764 106.71C54.8357 106.83 54.92 106.936 55.0236 107.02C55.1272 107.105 55.2478 107.167 55.3774 107.202C55.5069 107.237 55.6425 107.244 55.7751 107.223C55.9078 107.202 56.0344 107.154 56.1466 107.081L65.38 101.072C65.4845 101.004 65.5744 100.916 65.6445 100.814C65.7146 100.711 65.7635 100.596 65.7885 100.474C65.8134 100.353 65.8139 100.227 65.7898 100.106C65.7657 99.984 65.7177 99.8682 65.6483 99.7651L65.332 99.2936C65.1974 99.093 64.9901 98.9514 64.7532 98.8983C64.5162 98.8451 64.2677 98.8844 64.0592 99.0081Z" fill="#111111"/>
<path d="M111.857 66.9554L63.5105 101.062" stroke="#111111" stroke-width="0.900168" stroke-linecap="round" stroke-linejoin="round"/>
<path d="M111.434 60.4504L110.61 60.5746C110.376 60.6099 110.215 60.8268 110.251 61.0591L111.342 68.1814C111.377 68.4137 111.596 68.5733 111.83 68.538L112.654 68.4138C112.888 68.3785 113.049 68.1616 113.013 67.9294L111.923 60.807C111.887 60.5748 111.668 60.4151 111.434 60.4504Z" fill="#111111"/>
<path d="M178.628 132.16H236.779C238.018 132.16 239.022 131.164 239.022 129.935V101.712C239.022 100.483 238.018 99.487 236.779 99.487H178.628C177.39 99.487 176.386 100.483 176.386 101.712V129.935C176.386 131.164 177.39 132.16 178.628 132.16Z" fill="#EBD96B"/>
<path d="M197.616 99.9569C195.945 99.9569 194.59 101.078 194.59 102.46V129.664C194.59 131.046 195.939 132.167 197.616 132.167" fill="#EBD96B"/>
<path d="M197.616 99.9569C195.945 99.9569 194.59 101.078 194.59 102.46V129.664C194.59 131.046 195.939 132.167 197.616 132.167" stroke="#111111" stroke-width="0.900168" stroke-linecap="round" stroke-linejoin="round"/>
<path d="M188.19 110.231V102.026C188.19 100.623 189.539 99.487 191.217 99.487H185.547C183.875 99.487 182.52 100.623 182.52 102.026V110.231H188.19Z" fill="#EBD96B" stroke="#111111" stroke-width="0.900168" stroke-linecap="round" stroke-linejoin="round"/>
<path d="M268 131.959L1 133" stroke="#111111" stroke-width="0.900168" stroke-linecap="round" stroke-linejoin="round"/>
</svg>
